<svg width="128" height="128" viewBox="0 0 128 128" fill="none" xmlns="http://www.w3.org/2000/svg">
<rect width="128" height="128" fill="#1A1A1A"/>
<rect x="14.5" y="14.5" width="99" height="99" stroke="white" stroke-width="5"/>
<rect x="106" y="106" width="15" height="15" fill="white" stroke="#1A1A1A" stroke-width="4"/>
<path d="M42.38 43.16H50.36L66.74 86H59.24L55.34 75.26H37.4L33.5 86H26L42.38 43.16ZM39.5 69.5H53.24L46.52 50.72H46.28L39.5 69.5ZM84.4227 54.14C88.9827 54.14 92.4027 55.28 94.5627 57.56C96.4827 59.54 97.4427 62.42 97.4427 66.2V86H91.0827V81.92C89.8827 83.48 88.3827 84.62 86.6427 85.46C84.6627 86.36 82.3227 86.84 79.6227 86.84C76.3827 86.84 73.8627 86 72.0027 84.38C70.0827 82.7 69.1227 80.6 69.1227 78.02C69.1227 74.54 70.4427 71.84 73.2027 69.98C75.7227 68.18 79.2627 67.22 83.8227 67.1L90.6027 66.92V65.72C90.6027 61.64 88.3827 59.66 83.9427 59.66C82.0227 59.66 80.5227 59.96 79.3827 60.68C78.0627 61.46 77.1627 62.66 76.8027 64.28L70.0227 63.74C70.6827 60.32 72.3627 57.8 75.0627 56.24C77.3427 54.8 80.4627 54.14 84.4227 54.14ZM90.6027 71.84L84.3027 72.02C78.8427 72.14 76.1427 74.06 76.1427 77.78C76.1427 78.86 76.5627 79.76 77.5227 80.48C78.4827 81.2 79.6827 81.62 81.1827 81.62C83.8227 81.62 86.0427 80.84 87.8427 79.34C89.6427 77.78 90.6027 75.8 90.6027 73.4V71.84Z" fill="white"/>
</svg>
